<svg width="694" height="694" viewBox="0 0 694 694" fill="none" xmlns="http://www.w3.org/2000/svg">
<g clip-path="url(#clip0_59_149)">
<path d="M135.589 270.582L137.055 266.93C138.586 263.114 138.972 259.87 138.211 257.196C137.451 254.523 135.59 252.592 132.629 251.404C129.669 250.216 126.99 250.325 124.592 251.731C122.194 253.136 120.23 255.747 118.698 259.563L117.233 263.215L135.589 270.582ZM193.814 244.563L184.15 268.643L148.123 275.612L176.743 287.098L168.98 306.442L94.5677 276.578L106.648 246.477C108.311 242.332 110.389 238.964 112.88 236.374C115.305 233.757 117.967 231.884 120.864 230.755C123.788 229.56 126.83 229.024 129.989 229.146C133.175 229.202 136.347 229.864 139.505 231.132C145.163 233.402 149.214 236.632 151.658 240.822C154.063 244.919 154.82 249.883 153.932 255.714L193.814 244.563ZM181.704 220.521C183.1 221.724 184.597 222.594 186.195 223.129C187.785 223.564 189.357 223.75 190.911 223.685C192.511 223.566 194.038 223.152 195.494 222.441C196.995 221.676 198.302 220.65 199.413 219.361C200.524 218.072 201.324 216.656 201.812 215.112C202.348 213.514 202.533 211.942 202.368 210.396C202.25 208.796 201.835 207.268 201.124 205.813C200.406 204.258 199.375 202.901 198.033 201.744C196.744 200.633 195.305 199.86 193.714 199.424C192.117 198.889 190.518 198.681 188.918 198.799C187.364 198.864 185.837 199.279 184.335 200.043C182.88 200.754 181.597 201.754 180.486 203.043C179.375 204.331 178.551 205.775 178.016 207.373C177.527 208.917 177.342 210.489 177.46 212.089C177.625 213.635 178.04 215.162 178.705 216.671C179.415 218.127 180.415 219.41 181.704 220.521ZM168.28 235.765C165.219 233.127 162.906 230.056 161.34 226.552C159.72 223.003 158.892 219.294 158.857 215.426C158.769 211.512 159.457 207.565 160.922 203.586C162.433 199.553 164.739 195.738 167.841 192.141C170.896 188.597 174.284 185.808 178.004 183.773C181.716 181.638 185.515 180.327 189.399 179.838C193.277 179.25 197.117 179.518 200.92 180.644C204.669 181.724 208.182 183.676 211.457 186.499C214.732 189.323 217.184 192.56 218.811 196.21C220.431 199.759 221.285 203.491 221.374 207.405C221.409 211.273 220.621 215.227 219.01 219.267C217.445 223.254 215.112 227.046 212.01 230.643C208.955 234.187 205.594 236.999 201.928 239.08C198.262 241.161 194.486 242.446 190.601 242.935C186.763 243.37 182.942 243.024 179.139 241.898C175.282 240.726 171.663 238.682 168.28 235.765ZM197.386 120.745L248.768 192.511L233.118 203.716L181.736 131.951L197.386 120.745ZM231.665 101.454L272.066 179.928L254.953 188.738L214.552 110.264L231.665 101.454ZM336.446 122.295L340.38 122.235C344.491 122.173 347.633 121.274 349.804 119.539C351.976 117.805 353.037 115.342 352.989 112.153C352.94 108.963 351.804 106.534 349.581 104.866C347.358 103.198 344.19 102.395 340.079 102.458L336.145 102.518L336.446 122.295ZM382.948 165.938L357.003 166.332L336.651 135.799L337.12 166.634L316.279 166.951L315.06 86.7789L347.491 86.2858C351.956 86.2179 355.865 86.8321 359.218 88.1282C362.569 89.3535 365.325 91.0842 367.486 93.3202C369.718 95.5552 371.388 98.1532 372.496 101.114C373.676 104.074 374.292 107.255 374.343 110.658C374.436 116.754 373.023 121.739 370.104 125.612C367.255 129.413 362.969 132.031 357.248 133.465L382.948 165.938ZM424.028 144.499C424.229 141.738 423.627 139.281 422.224 137.13C420.821 134.978 418.767 133.476 416.062 132.624C413.222 131.729 410.655 131.738 408.361 132.65C406.134 133.584 404.358 135.329 403.032 137.884L424.028 144.499ZM399.17 148.374C396.677 156.286 399.15 161.413 406.588 163.756C410.577 165.013 414.098 164.339 417.149 161.732L434.899 167.324C427.565 178.096 416.731 181.223 402.396 176.707C398.001 175.322 394.18 173.412 390.934 170.977C387.708 168.475 385.161 165.591 383.29 162.326C381.488 159.082 380.409 155.546 380.054 151.718C379.7 147.889 380.183 143.879 381.503 139.687C382.867 135.359 384.768 131.684 387.207 128.662C389.667 125.572 392.531 123.204 395.8 121.558C399.069 119.912 402.664 119 406.585 118.823C410.594 118.6 414.831 119.191 419.294 120.597C423.689 121.982 427.431 123.904 430.521 126.365C433.633 128.757 436.011 131.588 437.658 134.856C439.304 138.125 440.194 141.788 440.328 145.844C440.484 149.832 439.848 154.092 438.421 158.622L437.813 160.549L399.17 148.374ZM459.012 171.049C457.975 172.486 457.259 174.024 456.864 175.662C456.511 177.243 456.433 178.804 456.632 180.346C456.888 181.93 457.434 183.416 458.268 184.804C459.159 186.234 460.324 187.468 461.761 188.505C463.141 189.5 464.621 190.175 466.202 190.528C467.84 190.923 469.422 190.972 470.948 190.674C472.532 190.418 474.018 189.873 475.406 189.039C476.852 188.246 478.073 187.16 479.068 185.78C480.064 184.4 480.71 182.899 481.006 181.277C481.401 179.639 481.47 178.028 481.214 176.445C481.015 174.903 480.47 173.416 479.579 171.987C478.745 170.598 477.638 169.406 476.258 168.411C474.82 167.374 473.283 166.658 471.644 166.262C470.064 165.909 468.482 165.86 466.898 166.116C465.372 166.414 463.915 166.98 462.526 167.814C461.179 168.591 460.008 169.669 459.012 171.049ZM494.541 163.243L510.237 174.567L478.319 218.808L462.623 207.485L466.17 202.569C459.807 204.36 453.78 203.203 448.088 199.096C444.868 196.773 442.322 194.062 440.449 190.963C438.618 187.806 437.464 184.438 436.986 180.859C436.509 177.28 436.732 173.638 437.656 169.934C438.638 166.271 440.352 162.744 442.799 159.352C445.081 156.19 447.784 153.594 450.908 151.565C454.075 149.478 457.403 148.076 460.892 147.359C464.382 146.642 467.913 146.655 471.486 147.397C475.101 148.082 478.547 149.606 481.824 151.971C487.344 155.952 490.525 161.176 491.368 167.641L494.541 163.243ZM510.834 217.14C509.397 218.178 508.233 219.412 507.342 220.842C506.508 222.231 505.943 223.688 505.646 225.215C505.39 226.798 505.44 228.38 505.794 229.961C506.19 231.599 506.906 233.136 507.944 234.573C508.94 235.953 510.132 237.059 511.521 237.893C512.952 238.784 514.438 239.328 515.98 239.526C517.564 239.782 519.146 239.732 520.726 239.378C522.348 239.081 523.849 238.435 525.229 237.439C526.608 236.443 527.694 235.222 528.486 233.775C529.377 232.345 529.95 230.838 530.206 229.254C530.503 227.728 530.453 226.146 530.058 224.508C529.703 222.927 529.028 221.448 528.032 220.068C527.036 218.689 525.823 217.553 524.392 216.662C523.004 215.829 521.517 215.284 519.934 215.029C518.392 214.831 516.809 214.88 515.187 215.177C513.664 215.49 512.213 216.144 510.834 217.14ZM574.342 201.188L585.673 216.879L514.114 268.55L502.784 252.859L507.698 249.31C501.095 249.006 495.74 246.009 491.631 240.319C489.307 237.1 487.773 233.704 487.029 230.131C486.286 226.558 486.251 222.998 486.925 219.451C487.599 215.904 488.958 212.518 491.002 209.293C493.087 206.126 495.796 203.339 499.13 200.932C502.291 198.649 505.653 197.008 509.217 196.009C512.879 195.026 516.479 194.744 520.017 195.162C523.555 195.581 526.902 196.705 530.06 198.535C533.317 200.381 536.128 202.942 538.493 206.218C542.478 211.736 543.852 217.696 542.615 224.097L574.342 201.188ZM523.953 280.782L560.926 241.441L567.655 262.734L545.377 285.053L576.307 290.112L582.971 311.203L491.794 294.067L485.289 273.483L523.953 280.782Z" fill="white"/>
</g>
<defs>
<clipPath id="clip0_59_149">
<rect width="694" height="694" fill="white"/>
</clipPath>
</defs>
</svg>
