<svg width="738" height="480" viewBox="0 0 738 480" fill="none" xmlns="http://www.w3.org/2000/svg">
<path d="M358.556 468.336C380.645 468.732 399.735 403.096 401.197 321.732C402.656 240.493 385.988 174.292 363.951 173.693L543.633 177.747C780.117 194.965 739.729 389.562 705.961 438.093C682.318 472.07 461.912 483.89 423.235 469.497L358.556 468.336Z" fill="#2F47D7"/>
<ellipse cx="356.817" cy="320.936" rx="40.0006" ry="147.346" transform="rotate(1.02899 356.817 320.936)" fill="#283682" stroke="black" stroke-width="10.3127"/>
<path d="M564.618 176.483L359.475 173.612C381.563 174.009 398.284 240.289 396.823 321.653C395.361 403.017 376.271 468.654 354.183 468.257L572.645 471.782" stroke="black" stroke-width="10.3127"/>
<path d="M381.051 468.743C403.139 469.14 422.229 403.503 423.691 322.139C425.152 240.775 408.431 174.495 386.343 174.098" stroke="black" stroke-width="10.3127"/>
<path d="M371.821 321.206C371.093 361.745 374.879 398.539 381.593 425.306" stroke="black" stroke-width="10.3127"/>
<path d="M409.168 469.248C431.256 469.645 450.347 404.008 451.808 322.644C453.27 241.28 436.548 175 414.46 174.604" stroke="black" stroke-width="10.3127"/>
<path d="M343.705 320.7C342.554 384.789 352.684 439.519 367.833 460.064" stroke="black" stroke-width="10.3127"/>
<path d="M184.979 46.3941C181.817 31.0223 172.585 5.53935 151.338 5.15773C144.464 5.0343 119.702 8.96555 115.301 45.1428C109.859 89.8831 127.041 125.592 141.939 145.639C158.418 167.814 175.392 162.493 171.459 207.43L166.825 187.03C167.183 190.267 165.378 197.944 155.29 202.764C142.68 208.788 105.558 378.777 142.639 385.069C179.72 391.361 236.125 383.31 256.245 376.795C272.342 371.583 283.476 357.28 287.031 350.781C292.606 353.59 315.051 356.91 325.049 357.089L390.541 358.266C390.541 358.266 394.941 322.088 390.612 267.313C386.282 212.539 369.587 184.946 369.587 184.946C359.592 184.558 327.304 182.849 318.796 183.196C308.161 183.631 289.949 188.304 282.341 159.413C274.734 130.521 234.609 102.295 214.735 95.0621C194.861 87.8289 187.761 59.9179 184.979 46.3941Z" fill="#FFCDB5"/>
<path d="M370.844 184.135C360.85 183.747 327.172 182.85 318.664 183.198C308.03 183.632 289.818 188.306 282.21 159.414C274.603 130.522 234.477 102.297 214.604 95.0634C194.73 87.8302 187.629 59.9191 184.847 46.3954C181.685 31.0235 172.454 5.54063 151.207 5.159C144.333 5.03557 119.57 8.96683 115.17 45.1441C109.728 89.8844 126.909 125.593 141.808 145.64C158.287 167.815 175.261 162.494 171.328 207.431C167.395 252.369 181.319 277.623 204.318 284.912C227.316 292.202 256.731 290.229 280.369 261.899M390.533 358.269C384.284 358.157 334.916 357.27 324.918 357.091C314.919 356.911 292.475 353.591 286.899 350.782" stroke="black" stroke-width="10.3127" stroke-linecap="round" stroke-linejoin="round"/>
<path d="M292.708 305.877C290.553 321.466 295.96 368.447 237.574 382.401C190.865 393.564 109.378 385.099 74.4728 379.471" stroke="black" stroke-width="10.3127" stroke-linecap="round" stroke-linejoin="round"/>
<rect x="20.856" y="162.845" width="152.815" height="60.6259" rx="30.313" transform="rotate(1.02899 20.856 162.845)" fill="#FFCDB5" stroke="black" stroke-width="10.3127"/>
<path d="M54.0422 194.381C53.7416 211.119 67.0661 224.931 83.8034 225.231L128.168 226.028C111.431 225.727 98.1064 211.915 98.407 195.178C98.7076 178.441 112.52 165.116 129.257 165.417L84.8921 164.62C68.1548 164.319 54.3428 177.644 54.0422 194.381Z" fill="white" stroke="black" stroke-width="10.3127"/>
<path d="M190.302 144.495C209.18 132.673 219.05 114.412 212.347 103.707L194.579 75.3308C201.282 86.036 191.412 104.297 172.533 116.119C153.655 127.94 132.916 128.845 126.213 118.14L143.981 146.516C150.685 157.221 171.423 156.316 190.302 144.495Z" fill="white" stroke="black" stroke-width="10.3127"/>
<rect x="28.8077" y="329.265" width="136.565" height="58.1259" rx="29.063" transform="rotate(1.02899 28.8077 329.265)" fill="#FFCDB5" stroke="black" stroke-width="10.3127"/>
<rect x="18.722" y="281.267" width="152.815" height="60.6259" rx="30.313" transform="rotate(1.02899 18.722 281.267)" fill="#FFCDB5" stroke="black" stroke-width="10.3127"/>
<rect x="5.7085" y="223.206" width="166.878" height="60.9385" rx="30.4692" transform="rotate(1.02899 5.7085 223.206)" fill="#FFCDB5" stroke="black" stroke-width="10.3127"/>
<path d="M39.2164 254.125C38.9158 270.862 52.2403 284.674 68.9776 284.975L113.342 285.772C96.6051 285.471 83.2806 271.659 83.5812 254.922C83.8818 238.185 97.6938 224.86 114.431 225.161L70.0663 224.364C53.329 224.063 39.517 237.388 39.2164 254.125Z" fill="white" stroke="black" stroke-width="10.3127"/>
<path d="M51.4984 336.392C50.9886 364.779 63.4633 388.023 79.3616 388.308L127.752 389.177C111.853 388.892 99.3785 365.648 99.8884 337.262C100.398 308.875 113.7 286.094 129.598 286.38L81.208 285.511C65.3097 285.225 52.0083 308.006 51.4984 336.392Z" fill="white" stroke="black" stroke-width="10.3127"/>
</svg>
