<svg width="685" height="685" viewBox="0 0 685 685" fill="none" xmlns="http://www.w3.org/2000/svg">
<circle cx="342.5" cy="342.5" r="308.78" transform="rotate(-6.65844 342.5 342.5)" fill="#4171F9"/>
<path d="M130.589 265.582L132.055 261.93C133.586 258.114 133.972 254.87 133.211 252.196C132.451 249.523 130.59 247.592 127.629 246.404C124.669 245.216 121.99 245.325 119.592 246.731C117.194 248.136 115.23 250.747 113.698 254.563L112.233 258.215L130.589 265.582ZM188.814 239.563L179.15 263.643L143.123 270.612L171.743 282.098L163.98 301.442L89.5677 271.578L101.648 241.477C103.311 237.332 105.389 233.964 107.88 231.374C110.305 228.757 112.967 226.884 115.864 225.755C118.788 224.56 121.83 224.024 124.989 224.146C128.175 224.202 131.347 224.864 134.505 226.132C140.163 228.402 144.214 231.632 146.658 235.822C149.063 239.919 149.82 244.883 148.932 250.714L188.814 239.563ZM176.704 215.521C178.1 216.724 179.597 217.594 181.195 218.129C182.785 218.564 184.357 218.75 185.911 218.685C187.511 218.566 189.038 218.152 190.494 217.441C191.995 216.676 193.302 215.65 194.413 214.361C195.524 213.072 196.324 211.656 196.812 210.112C197.348 208.514 197.533 206.942 197.368 205.396C197.25 203.796 196.835 202.268 196.124 200.813C195.406 199.258 194.375 197.901 193.033 196.744C191.744 195.633 190.305 194.86 188.714 194.424C187.117 193.889 185.518 193.681 183.918 193.799C182.364 193.864 180.837 194.279 179.335 195.043C177.88 195.754 176.597 196.754 175.486 198.043C174.375 199.331 173.551 200.775 173.016 202.373C172.527 203.917 172.342 205.489 172.46 207.089C172.625 208.635 173.04 210.162 173.705 211.671C174.415 213.127 175.415 214.41 176.704 215.521ZM163.28 230.765C160.219 228.127 157.906 225.056 156.34 221.552C154.72 218.003 153.892 214.294 153.857 210.426C153.769 206.512 154.457 202.565 155.922 198.586C157.433 194.553 159.739 190.738 162.841 187.141C165.896 183.597 169.284 180.808 173.004 178.773C176.716 176.638 180.515 175.327 184.399 174.838C188.277 174.25 192.117 174.518 195.92 175.644C199.669 176.724 203.182 178.676 206.457 181.499C209.732 184.323 212.184 187.56 213.811 191.21C215.431 194.759 216.285 198.491 216.374 202.405C216.409 206.273 215.621 210.227 214.01 214.267C212.445 218.254 210.112 222.046 207.01 225.643C203.955 229.187 200.594 231.999 196.928 234.08C193.262 236.161 189.486 237.446 185.601 237.935C181.763 238.37 177.942 238.024 174.139 236.898C170.282 235.726 166.663 233.682 163.28 230.765ZM192.386 115.745L243.768 187.511L228.118 198.716L176.736 126.951L192.386 115.745ZM226.665 96.4536L267.066 174.928L249.953 183.738L209.552 105.264L226.665 96.4536ZM331.446 117.295L335.38 117.235C339.491 117.173 342.633 116.274 344.804 114.539C346.976 112.805 348.037 110.342 347.989 107.153C347.94 103.963 346.804 101.534 344.581 99.866C342.358 98.1981 339.19 97.3954 335.079 97.458L331.145 97.5178L331.446 117.295ZM377.948 160.938L352.003 161.332L331.651 130.799L332.12 161.634L311.279 161.951L310.06 81.7789L342.491 81.2858C346.956 81.2179 350.865 81.8321 354.218 83.1282C357.569 84.3535 360.325 86.0842 362.486 88.3202C364.718 90.5552 366.388 93.1532 367.496 96.1142C368.676 99.0742 369.292 102.255 369.343 105.658C369.436 111.754 368.023 116.739 365.104 120.612C362.255 124.413 357.969 127.031 352.248 128.465L377.948 160.938ZM419.028 139.499C419.229 136.738 418.627 134.281 417.224 132.13C415.821 129.978 413.767 128.476 411.062 127.624C408.222 126.729 405.655 126.738 403.361 127.65C401.134 128.584 399.358 130.329 398.032 132.884L419.028 139.499ZM394.17 143.374C391.677 151.286 394.15 156.413 401.588 158.756C405.577 160.013 409.098 159.339 412.149 156.732L429.899 162.324C422.565 173.096 411.731 176.223 397.396 171.707C393.001 170.322 389.18 168.412 385.934 165.977C382.708 163.475 380.161 160.591 378.29 157.326C376.488 154.082 375.409 150.546 375.054 146.718C374.7 142.889 375.183 138.879 376.503 134.687C377.867 130.359 379.768 126.684 382.207 123.662C384.667 120.572 387.531 118.204 390.8 116.558C394.069 114.912 397.664 114 401.585 113.823C405.594 113.6 409.831 114.191 414.294 115.597C418.689 116.982 422.431 118.904 425.521 121.365C428.633 123.757 431.011 126.588 432.658 129.856C434.304 133.125 435.194 136.788 435.328 140.844C435.484 144.832 434.848 149.092 433.421 153.622L432.813 155.549L394.17 143.374ZM454.012 166.049C452.975 167.486 452.259 169.024 451.864 170.662C451.511 172.243 451.433 173.804 451.632 175.346C451.888 176.93 452.434 178.416 453.268 179.804C454.159 181.234 455.324 182.468 456.761 183.505C458.141 184.5 459.621 185.175 461.202 185.528C462.84 185.923 464.422 185.972 465.948 185.674C467.532 185.418 469.018 184.873 470.406 184.039C471.852 183.246 473.073 182.16 474.068 180.78C475.064 179.4 475.71 177.899 476.006 176.277C476.401 174.639 476.47 173.028 476.214 171.445C476.015 169.903 475.47 168.416 474.579 166.987C473.745 165.598 472.638 164.406 471.258 163.411C469.82 162.374 468.283 161.658 466.644 161.262C465.064 160.909 463.482 160.86 461.898 161.116C460.372 161.414 458.915 161.98 457.526 162.814C456.179 163.591 455.008 164.669 454.012 166.049ZM489.541 158.243L505.237 169.567L473.319 213.808L457.623 202.485L461.17 197.569C454.807 199.36 448.78 198.203 443.088 194.096C439.868 191.773 437.322 189.062 435.449 185.963C433.618 182.806 432.464 179.438 431.986 175.859C431.509 172.28 431.732 168.638 432.656 164.934C433.638 161.271 435.352 157.744 437.799 154.352C440.081 151.19 442.784 148.594 445.908 146.565C449.075 144.478 452.403 143.076 455.892 142.359C459.382 141.642 462.913 141.655 466.486 142.397C470.101 143.082 473.547 144.606 476.824 146.971C482.344 150.952 485.525 156.176 486.368 162.641L489.541 158.243ZM505.834 212.14C504.397 213.178 503.233 214.412 502.342 215.842C501.508 217.231 500.943 218.688 500.646 220.215C500.39 221.798 500.44 223.38 500.794 224.961C501.19 226.599 501.906 228.136 502.944 229.573C503.94 230.953 505.132 232.059 506.521 232.893C507.952 233.784 509.438 234.328 510.98 234.526C512.564 234.782 514.146 234.732 515.726 234.378C517.348 234.081 518.849 233.435 520.229 232.439C521.608 231.443 522.694 230.222 523.486 228.775C524.377 227.345 524.95 225.838 525.206 224.254C525.503 222.728 525.453 221.146 525.058 219.508C524.703 217.927 524.028 216.448 523.032 215.068C522.036 213.689 520.823 212.553 519.392 211.662C518.004 210.829 516.517 210.284 514.934 210.029C513.392 209.831 511.809 209.88 510.187 210.177C508.664 210.49 507.213 211.144 505.834 212.14ZM569.342 196.188L580.673 211.879L509.114 263.55L497.784 247.859L502.698 244.31C496.095 244.006 490.74 241.009 486.631 235.319C484.307 232.1 482.773 228.704 482.029 225.131C481.286 221.558 481.251 217.998 481.925 214.451C482.599 210.904 483.958 207.518 486.002 204.293C488.087 201.126 490.796 198.339 494.13 195.932C497.291 193.649 500.653 192.008 504.217 191.009C507.879 190.026 511.479 189.744 515.017 190.162C518.555 190.581 521.902 191.705 525.06 193.535C528.317 195.381 531.128 197.942 533.493 201.218C537.478 206.736 538.852 212.696 537.615 219.097L569.342 196.188ZM518.953 275.782L555.926 236.441L562.655 257.734L540.377 280.053L571.307 285.112L577.971 306.203L486.794 289.067L480.289 268.483L518.953 275.782Z" fill="white"/>
<mask id="mask0_47_329" style="mask-type:alpha" maskUnits="userSpaceOnUse" x="33" y="33" width="619" height="619">
<circle cx="342.5" cy="342.5" r="308.78" transform="rotate(2.60917 342.5 342.5)" fill="#4171F9"/>
</mask>
<g mask="url(#mask0_47_329)">
<path d="M498.314 627.863C519.55 628.4 538.367 565.423 540.344 487.202C542.322 408.98 526.71 345.133 505.475 344.596L637.946 347.945C650.211 397.851 641.268 434.296 633.165 489.548C627.389 528.928 585.204 603.207 560.495 629.435L498.314 627.863Z" fill="#2F47D7"/>
<ellipse cx="497.687" cy="486.12" rx="38.462" ry="141.678" transform="rotate(1.44807 497.687 486.12)" fill="#283682" stroke="black" stroke-width="9.91599"/>
<path d="M651.164 348.279L501.27 344.49C522.505 345.027 538.117 408.873 536.139 487.095C534.162 565.317 515.345 628.293 494.109 627.756L556.29 629.328" stroke="black" stroke-width="9.91599"/>
<path d="M519.942 628.41C541.178 628.946 559.995 565.97 561.972 487.748C563.95 409.527 548.338 345.68 527.103 345.143" stroke="black" stroke-width="9.91599"/>
<path d="M512.108 486.488C511.123 525.461 514.504 560.866 520.772 586.65" stroke="black" stroke-width="9.91599"/>
<path d="M546.977 629.093C568.212 629.63 587.03 566.653 589.007 488.432C590.984 410.21 575.373 346.363 554.138 345.826" stroke="black" stroke-width="9.91599"/>
<path d="M485.074 485.804C483.516 547.418 492.871 600.113 507.292 619.974" stroke="black" stroke-width="9.91599"/>
<path d="M334.385 220.94C331.453 206.138 322.756 181.571 302.33 181.055C295.721 180.888 271.884 184.493 267.398 219.247C261.851 262.227 278.12 296.682 292.304 316.062C307.993 337.5 324.351 332.503 320.253 375.683L315.941 356.036C316.263 359.15 314.473 366.519 304.739 371.082C292.572 376.786 255.684 539.971 291.293 546.281C326.903 552.592 381.193 545.248 400.585 539.125C416.098 534.227 426.904 520.553 430.368 514.329C435.71 517.069 457.267 520.419 466.879 520.662L529.842 522.254C529.842 522.254 534.327 487.5 530.549 434.803C526.772 382.106 510.913 355.458 510.913 355.458C501.306 355.015 470.272 353.144 462.089 353.418C451.861 353.761 434.317 358.127 427.205 330.293C420.094 302.46 381.712 275.039 362.654 267.944C343.596 260.85 336.965 233.963 334.385 220.94Z" fill="#FFCDB5"/>
<path d="M512.135 354.684C502.528 354.24 470.153 353.141 461.97 353.415C451.742 353.758 434.198 358.124 427.086 330.291C419.975 302.457 381.592 275.036 362.535 267.942C343.477 260.847 336.846 233.96 334.266 220.938C331.334 206.135 322.637 181.568 302.21 181.052C295.602 180.885 271.765 184.491 267.279 219.244C261.732 262.224 278.001 296.679 292.185 316.06C307.874 337.497 324.232 332.5 320.134 375.68C316.037 418.86 329.248 443.24 351.309 450.411C373.371 457.581 401.668 455.892 424.596 428.818M529.841 522.254C523.833 522.102 476.372 520.902 466.76 520.659C457.147 520.416 435.59 517.066 430.249 514.326" stroke="black" stroke-width="9.91599" stroke-linecap="round" stroke-linejoin="round"/>
<path d="M436.148 471.191C433.966 486.165 438.835 531.375 382.598 544.382C337.609 554.787 259.318 546.074 225.796 540.418" stroke="black" stroke-width="9.91599" stroke-linecap="round" stroke-linejoin="round"/>
<rect x="175.764" y="331.753" width="146.937" height="58.294" rx="29.147" transform="rotate(1.44807 175.764 331.753)" fill="#FFCDB5" stroke="black" stroke-width="9.91599"/>
<path d="M207.454 362.311C207.048 378.403 219.763 391.778 235.855 392.185L278.511 393.264C262.418 392.857 249.703 379.482 250.11 363.389C250.516 347.297 263.891 334.581 279.984 334.988L237.329 333.91C221.236 333.503 207.861 346.219 207.454 362.311Z" fill="white" stroke="black" stroke-width="9.91599"/>
<path d="M338.818 315.3C357.055 304.066 366.675 286.575 360.304 276.234L343.418 248.823C349.788 259.164 340.169 276.655 321.932 287.889C303.695 299.124 283.747 299.848 277.377 289.507L294.263 316.918C300.633 327.259 320.582 326.535 338.818 315.3Z" fill="white" stroke="black" stroke-width="9.91599"/>
<rect x="182.237" y="491.825" width="131.312" height="55.8901" rx="27.9451" transform="rotate(1.44807 182.237 491.825)" fill="#FFCDB5" stroke="black" stroke-width="9.91599"/>
<rect x="172.886" y="445.6" width="146.937" height="58.294" rx="29.147" transform="rotate(1.44807 172.886 445.6)" fill="#FFCDB5" stroke="black" stroke-width="9.91599"/>
<rect x="160.773" y="389.686" width="160.459" height="58.5945" rx="29.2972" transform="rotate(1.44807 160.773 389.686)" fill="#FFCDB5" stroke="black" stroke-width="9.91599"/>
<path d="M192.779 419.651C192.372 435.744 205.088 449.119 221.18 449.526L263.835 450.604C247.743 450.197 235.027 436.822 235.434 420.73C235.841 404.637 249.216 391.922 265.308 392.329L222.653 391.25C206.561 390.844 193.186 403.559 192.779 419.651Z" fill="white" stroke="black" stroke-width="9.91599"/>
<path d="M204.001 498.838C203.311 526.128 215.143 548.565 230.427 548.951L276.948 550.127C261.664 549.741 249.833 527.304 250.523 500.014C251.212 472.723 264.162 450.913 279.446 451.299L232.925 450.123C217.641 449.737 204.691 471.547 204.001 498.838Z" fill="white" stroke="black" stroke-width="9.91599"/>
</g>
<circle cx="342.5" cy="342.5" r="301.025" transform="rotate(-6.65844 342.5 342.5)" stroke="black" stroke-width="15.5088"/>
</svg>
